<?xml version="1.0" encoding="UTF-8" standalone="no"?>
<svg width="141px" height="141px" viewBox="0 0 141 141" version="1.1" xmlns="http://www.w3.org/2000/svg" xmlns:xlink="http://www.w3.org/1999/xlink">
    <g id="Homepage" stroke="none" stroke-width="1" fill="none" fill-rule="evenodd">
        <g id="Watson-Services-Home---Web-Copy-2" transform="translate(-1065.000000, -977.000000)" fill="#ECECEC">
            <g id="Group-4" transform="translate(998.000000, 977.000000)">
                <g id="Computer_64-Copy" transform="translate(67.000000, 0.000000)">
                    <g id="Group-141" transform="translate(0.133803, 0.000000)">
                        <path d="M133.044516,140.467597 L38.0037171,140.467597 C36.9733828,140.467597 36.1370444,139.631259 36.1370444,138.600925 C36.1370444,137.57059 36.9733828,136.734252 38.0037171,136.734252 L133.044516,136.734252 C135.122429,136.734252 136.816661,135.04002 136.816661,132.962107 L136.816661,7.51566783 C136.816661,5.43775505 135.122429,3.74352327 133.044516,3.74352327 L38.0037171,3.74352327 C35.9258044,3.74352327 34.2315726,5.43775505 34.2315726,7.51566783 L34.2315726,32.8687903 C34.2315726,33.8991247 33.3952342,34.735463 32.3648999,34.735463 C31.3345655,34.735463 30.4982272,33.8991247 30.4982272,32.8687903 L30.4982272,7.51566783 C30.4982272,3.37708637 33.8651357,0.0101779024 38.0037171,0.0101779024 L133.044516,0.0101779024 C137.183098,0.0101779024 140.550006,3.37708637 140.550006,7.51566783 L140.550006,132.962107 C140.550006,137.100689 137.183098,140.467597 133.044516,140.467597" id="Fill-416"></path>
                        <path d="M7.59980084,34.7341697 C5.52188806,34.7341697 3.82765627,36.4284015 3.82765627,38.5063143 L3.82765627,132.960814 C3.82765627,135.043038 5.52188806,136.732959 7.59980084,136.732959 L57.1291367,136.732959 C59.2113605,136.732959 60.9012813,135.043038 60.9012813,132.960814 L60.9012813,38.5063143 C60.9012813,36.4284015 59.2113605,34.7341697 57.1291367,34.7341697 L7.59980084,34.7341697 Z M57.1291367,140.466304 L7.59980084,140.466304 C3.46121937,140.466304 0.0943109072,137.099396 0.0943109072,132.960814 L0.0943109072,38.5063143 C0.0943109072,34.3677328 3.46121937,31.0008243 7.59980084,31.0008243 L57.1291367,31.0008243 C61.2677182,31.0008243 64.6346267,34.3677328 64.6346267,38.5063143 L64.6346267,132.960814 C64.6346267,137.099396 61.2677182,140.466304 57.1291367,140.466304 L57.1291367,140.466304 Z" id="Fill-417"></path>
                        <path d="M89.5385406,140.467597 C88.5082063,140.467597 87.6718679,139.631259 87.6718679,138.600925 C87.6718679,137.57059 88.5082063,136.734252 89.5385406,136.734252 C91.6164534,136.734252 93.3106852,135.04002 93.3106852,132.962107 L93.3106852,60.2567154 C93.3106852,58.1788026 91.6164534,56.4845708 89.5385406,56.4845708 L62.7714028,56.4845708 C61.7367574,56.4845708 60.9004191,55.6482325 60.9004191,54.6178981 C60.9004191,53.5875638 61.7367574,52.7512255 62.7714028,52.7512255 L89.5385406,52.7512255 C93.6771221,52.7512255 97.0440306,56.1181339 97.0440306,60.2567154 L97.0440306,132.962107 C97.0440306,137.100689 93.6771221,140.467597 89.5385406,140.467597" id="Fill-418"></path>
                        <path d="M62.7696784,116.799222 L1.95839698,116.799222 C0.923751609,116.799222 0.0874132714,115.962884 0.0874132714,114.93255 C0.0874132714,113.902215 0.923751609,113.065877 1.95839698,113.065877 L62.7696784,113.065877 C63.8000127,113.065877 64.6363511,113.902215 64.6363511,114.93255 C64.6363511,115.962884 63.8000127,116.799222 62.7696784,116.799222" id="Fill-419"></path>
                        <path d="M138.683764,116.799222 L62.7709717,116.799222 C61.7363263,116.799222 60.904299,115.962884 60.904299,114.93255 C60.904299,113.902215 61.7363263,113.065877 62.7709717,113.065877 L138.683764,113.065877 C139.714099,113.065877 140.550437,113.902215 140.550437,114.93255 C140.550437,115.962884 139.714099,116.799222 138.683764,116.799222" id="Fill-420"></path>
                        <path d="M36.4797707,126.765875 C36.4797707,124.493966 34.6389642,122.648849 32.3627444,122.648849 C30.0908356,122.648849 28.250029,124.493966 28.250029,126.765875 C28.250029,129.037784 30.0908356,130.882901 32.3627444,130.882901 C34.6389642,130.882901 36.4797707,129.037784 36.4797707,126.765875" id="Fill-421"></path>
                    </g>
                </g>
            </g>
        </g>
    </g>
</svg>
