<?xml version="1.0" encoding="UTF-8" standalone="no"?>
<svg width="153px" height="153px" viewBox="0 0 153 153" version="1.1" xmlns="http://www.w3.org/2000/svg" xmlns:xlink="http://www.w3.org/1999/xlink">
    <g id="Homepage" stroke="none" stroke-width="1" fill="none" fill-rule="evenodd">
        <g id="Watson-Services-Home---Web-Copy-2" transform="translate(-1143.000000, -667.000000)" fill="#ECECEC">
            <g id="Group-16" transform="translate(809.000000, 631.000000)">
                <g id="Group-57" transform="translate(334.000000, 36.000000)">
                    <path d="M48.439982,59.7479429 C23.9651816,59.7479429 4.05308309,79.6600415 4.05308309,104.134842 C4.05308309,128.609642 23.9651816,148.521741 48.439982,148.521741 C72.9147823,148.521741 92.8268809,128.609642 92.8268809,104.134842 C92.8268809,79.6600415 72.9147823,59.7479429 48.439982,59.7479429 M48.439982,152.574356 C21.7282879,152.574356 0.000467969414,130.841856 0.000467969414,104.134842 C0.000467969414,77.4231477 21.7282879,55.6953278 48.439982,55.6953278 C75.1516761,55.6953278 96.879496,77.4231477 96.879496,104.134842 C96.879496,130.841856 75.1516761,152.574356 48.439982,152.574356" id="Fill-683"></path>
                    <path d="M34.1107585,150.321083 C33.5725937,150.321083 33.0391086,150.110497 32.6413346,149.689324 C31.869185,148.875058 31.9019429,147.592821 32.7162097,146.825352 L56.8821502,123.89485 C57.4858308,123.323928 57.6121825,122.434786 57.2050491,121.723472 L39.3847738,90.7719752 C38.0276625,88.4134093 38.4675538,85.4745614 40.4564238,83.6167229 L52.1790576,72.8019497 C52.7733788,72.2450661 52.9090899,71.3512445 52.4925971,70.6352513 L45.6321655,58.7535079 C45.0752819,57.7848112 45.4075402,56.5446923 46.3762369,55.983129 C47.3496133,55.4215657 48.5850525,55.753824 49.1419361,56.7272003 L56.0023677,68.6089438 C57.3641587,70.9675096 56.9242675,73.9110372 54.9353975,75.7735555 L43.2127636,86.5883286 C42.6184425,87.1452122 42.487411,88.0343541 42.8992241,88.755027 L60.7148197,119.701844 C62.0672513,122.046371 61.6367195,124.980539 59.6618885,126.838378 L35.5053074,149.764199 C35.1122131,150.133895 34.6114858,150.321083 34.1107585,150.321083" id="Fill-684"></path>
                    <path d="M25.2198076,146.356446 C24.87819,146.356446 24.5272129,146.267532 24.2089937,146.085024 C23.240297,145.523461 22.9080387,144.283342 23.4649223,143.314645 L31.6590668,129.144531 C31.977286,128.601687 31.977286,127.923131 31.6590668,127.380286 L27.2086777,119.663471 C25.8515664,117.318944 26.2867779,114.380096 28.2616088,112.517578 L35.0003684,106.181272 C35.5993692,105.615029 35.7350804,104.721207 35.3185876,104.009894 L30.2925961,95.3056629 C29.9790566,94.7581387 29.3940948,94.4212007 28.7623361,94.4212007 L16.5249359,94.4212007 C14.4565111,94.4212007 12.5284771,93.3121132 11.489585,91.5197903 L6.21089006,82.4271446 C5.64932676,81.4631276 5.97690535,80.2230087 6.94560204,79.6614454 C7.91897842,79.0998821 9.15441767,79.4274607 9.71598097,80.3961573 L14.994676,89.4888031 C15.3128952,90.0316476 15.8978569,90.3685856 16.5249359,90.3685856 L28.7623361,90.3685856 C30.8354406,90.3685856 32.7681543,91.4823528 33.8023667,93.2793553 L38.8283582,101.978907 C40.1854695,104.332793 39.7549376,107.271641 37.7801067,109.134159 L31.0366675,115.465785 C30.4376666,116.032028 30.3066352,116.92585 30.7184483,117.637163 L35.1688374,125.353979 C36.2077295,127.150981 36.2077295,129.383196 35.1641577,131.175518 L26.9746929,145.345632 C26.6003174,145.99143 25.9170821,146.356446 25.2198076,146.356446" id="Fill-685"></path>
                    <path d="M94.3253189,112.396842 L85.6117285,112.396842 C83.538624,112.396842 81.6059103,111.278395 80.5670182,109.476713 L73.1590624,96.6028741 C72.1295297,94.8152309 72.1295297,92.5923762 73.1590624,90.8000534 L82.7009587,74.1824595 C83.262522,73.2137628 84.4979613,72.8768248 85.4666579,73.4337084 C86.4353546,73.990592 86.7722926,75.230711 86.215409,76.2040873 L76.6735127,92.8216812 C76.3599732,93.3645257 76.3599732,94.0384017 76.6735127,94.5812462 L84.0814685,107.455085 C84.395008,108.002609 84.9799698,108.344227 85.6117285,108.344227 L94.3253189,108.344227 C95.4437658,108.344227 96.3516265,109.252087 96.3516265,110.370534 C96.3516265,111.488981 95.4437658,112.396842 94.3253189,112.396842" id="Fill-686"></path>
                    <path d="M105.828007,50.7722895 L113.498026,52.6301281 L138.028982,38.4834127 L132.586498,29.0538291 L108.055542,43.2052241 L105.828007,50.7722895 Z M113.806886,56.8184544 C113.647776,56.8184544 113.488666,56.7997356 113.329557,56.762298 L102.804925,54.2118647 C102.26676,54.0808333 101.80815,53.7345359 101.532048,53.2525274 C101.251266,52.7751986 101.185751,52.204276 101.34018,51.6707908 L104.391341,41.2818698 C104.541091,40.7811426 104.87335,40.3599701 105.32728,40.0979072 L132.315076,24.5332445 C133.283773,23.9670015 134.528571,24.3039395 135.080775,25.2726362 L142.554247,38.2119905 C142.820989,38.6752802 142.891185,39.2274841 142.755474,39.7516099 C142.615083,40.2663762 142.278145,40.7109472 141.810175,40.9776897 L114.8177,56.5470321 C114.50884,56.7248605 114.157863,56.8184544 113.806886,56.8184544 L113.806886,56.8184544 Z" id="Fill-687"></path>
                    <path d="M113.557926,39.7221278 C112.855972,39.7221278 112.172736,39.3571116 111.798361,38.7066342 L95.6346974,10.6191099 C95.0778138,9.65041325 95.4147517,8.414974 96.3834484,7.85341071 L109.318123,0.384618862 C109.781413,0.117876296 110.333617,0.0383214953 110.857742,0.183392014 C111.377188,0.323782838 111.81708,0.660720816 112.088502,1.12869023 L128.252166,29.2162144 C128.809049,30.1849111 128.476791,31.4250301 127.503414,31.9819137 C126.534718,32.5387973 125.294599,32.206539 124.737715,31.2378423 L109.584866,4.90988309 L100.159962,10.3523674 L115.312811,36.6850063 C115.869695,37.653703 115.537437,38.8938219 114.56406,39.4507055 C114.245841,39.6332136 113.899544,39.7221278 113.557926,39.7221278" id="Fill-688"></path>
                    <path d="M90.5502097,48.990262 L99.7317696,64.8965424 C102.918641,61.9857726 103.775025,57.1422892 101.528772,53.2534634 C100.274614,51.0820853 98.2483065,49.5237472 95.8195453,48.8732697 C94.0599803,48.4053003 92.244259,48.4474175 90.5502097,48.990262 M99.1046906,69.8804167 C98.4027364,69.8804167 97.7195011,69.5200802 97.3451256,68.8696027 L85.9173125,49.0744965 C85.3604289,48.1057998 85.6880075,46.8656809 86.6567042,46.3041176 C89.7687008,44.507115 93.3861043,44.0297862 96.8724765,44.9610454 C100.34013,45.8876248 103.24154,48.1151592 105.038543,51.2318355 C108.74954,57.6570556 106.540725,65.9026766 100.110825,69.6089944 C99.7972853,69.7961822 99.4463082,69.8804167 99.1046906,69.8804167" id="Fill-689"></path>
                    <path d="M87.6918525,62.9928428 C86.9898984,62.9928428 86.3113427,62.6278267 85.9369672,61.9773492 C85.3754039,61.0086525 85.7076622,59.7732133 86.6763589,59.21165 L92.2451949,55.9967001 C93.2092119,55.4304571 94.4540105,55.7720748 95.0108941,56.7407715 C95.5724574,57.7094681 95.2401992,58.9449074 94.2715025,59.5064707 L88.7026664,62.7214206 C88.3844472,62.9039286 88.0334702,62.9928428 87.6918525,62.9928428" id="Fill-690"></path>
                    <path d="M137.511876,80.8589791 C136.809922,80.8589791 136.131367,80.493963 135.756991,79.8481652 L119.429538,51.592172 C118.872655,50.6234753 119.200233,49.3786766 120.16893,48.821793 C121.146986,48.25555 122.387105,48.592488 122.939309,49.5611847 L138.251268,76.0669723 L147.676172,70.6198083 L132.368892,44.1187004 C131.807329,43.1500037 132.139587,41.9098848 133.108284,41.3530012 C134.08166,40.7867582 135.321779,41.1236962 135.878663,42.0923929 L152.201436,70.3483861 C152.472858,70.8163555 152.543054,71.3685594 152.407343,71.8880054 C152.266952,72.4074515 151.925334,72.8473427 151.457365,73.118765 L138.52269,80.5875568 C138.204471,80.7700649 137.853494,80.8589791 137.511876,80.8589791" id="Fill-691"></path>
                    <path d="M112.868139,142.913127 C112.170865,142.913127 111.487629,142.548111 111.113254,141.902313 C110.55169,140.933617 110.883949,139.693498 111.847966,139.131934 C128.245614,129.627476 138.433308,111.933552 138.437988,92.962072 C138.437988,91.8389455 139.345848,90.9357645 140.464295,90.9357645 C141.587422,90.9357645 142.495283,91.8389455 142.495283,92.962072 C142.490603,113.374898 131.52608,132.411894 113.883633,142.637025 C113.560734,142.824213 113.214436,142.913127 112.868139,142.913127" id="Fill-692"></path>
                    <path d="M8.97986508,44.8566882 C8.46041903,44.8566882 7.94097298,44.660141 7.54787867,44.262367 L0.593853186,37.3083415 C-0.197015123,36.5174732 -0.197015123,35.2305573 0.593853186,34.439689 C1.3847215,33.6488207 2.66695769,33.6488207 3.457826,34.439689 L10.4118515,41.3983942 C11.2027198,42.1892625 11.2027198,43.4714987 10.4118515,44.262367 C10.0187572,44.660141 9.49931113,44.8566882 8.97986508,44.8566882" id="Fill-693"></path>
                    <path d="M2.02677553,44.8566882 C1.50732948,44.8566882 0.987883432,44.660141 0.594789125,44.262367 C-0.196079184,43.4714987 -0.196079184,42.1892625 0.594789125,41.3983942 L7.54881461,34.439689 C8.33968292,33.6488207 9.62191912,33.6488207 10.4127874,34.439689 C11.2036557,35.2305573 11.2036557,36.5174732 10.4127874,37.3083415 L3.45876194,44.262367 C3.06566763,44.660141 2.54622158,44.8566882 2.02677553,44.8566882" id="Fill-694"></path>
                    <path d="M47.4113852,11.107202 C46.8919392,11.107202 46.3724931,10.9106549 45.9793988,10.5128809 L39.0253733,3.5588554 C38.234505,2.76798709 38.234505,1.48575089 39.0253733,0.694882583 C39.8115619,-0.0959857264 41.0984778,-0.0959857264 41.8893461,0.694882583 L48.8433716,7.64890807 C49.6342399,8.43977638 49.6342399,9.72201257 48.8433716,10.5128809 C48.4502773,10.9106549 47.9308313,11.107202 47.4113852,11.107202" id="Fill-695"></path>
                    <path d="M40.4559558,11.107202 C39.9365098,11.107202 39.4170637,10.9106549 39.0239694,10.5128809 C38.2331011,9.72201257 38.2331011,8.43977638 39.0239694,7.64890807 L45.9779949,0.694882583 C46.7688632,-0.0959857264 48.0557791,-0.0959857264 48.8419677,0.694882583 C49.632836,1.48575089 49.632836,2.76798709 48.8419677,3.5588554 L41.8879422,10.5128809 C41.4948479,10.9106549 40.9754019,11.107202 40.4559558,11.107202" id="Fill-696"></path>
                </g>
            </g>
        </g>
    </g>
</svg>
