<?xml version="1.0" encoding="UTF-8" standalone="no"?>
<svg width="166px" height="126px" viewBox="0 0 166 126" version="1.1" xmlns="http://www.w3.org/2000/svg" xmlns:xlink="http://www.w3.org/1999/xlink">
    <g id="Homepage" stroke="none" stroke-width="1" fill="none" fill-rule="evenodd">
        <g id="Watson-Services-Home---Web-Copy-2" transform="translate(-631.000000, -992.000000)" fill="#ECECEC">
            <g id="Group-9" transform="translate(587.000000, 992.000000)">
                <g id="Group-16-Copy">
                    <g id="Group-50" transform="translate(44.000000, 0.000000)">
                        <path d="M52.1691283,102.392187 C50.9585567,102.392187 49.9759169,101.409547 49.9759169,100.198975 L49.9759169,14.385149 L64.7357735,14.385149 C65.9514103,14.385149 66.9289849,15.3677887 66.9289849,16.5783603 C66.9289849,17.7889319 65.9514103,18.7715717 64.7357735,18.7715717 L54.3623396,18.7715717 L54.3623396,100.198975 C54.3623396,101.409547 53.3796999,102.392187 52.1691283,102.392187" id="Fill-647"></path>
                        <path d="M62.3637622,97.7920146 C55.9715388,97.7920146 50.7746916,102.988862 50.7746916,109.381085 C50.7746916,115.768244 55.9715388,120.970156 62.3637622,120.970156 C68.7559857,120.970156 73.957898,115.768244 73.957898,109.381085 C73.957898,102.988862 68.7559857,97.7920146 62.3637622,97.7920146 M62.3637622,125.356579 C53.5554607,125.356579 46.393334,118.189387 46.393334,109.381085 C46.393334,100.572784 53.5554607,93.4055919 62.3637622,93.4055919 C71.1720638,93.4055919 78.3392556,100.572784 78.3392556,109.381085 C78.3392556,118.189387 71.1720638,125.356579 62.3637622,125.356579" id="Fill-648"></path>
                        <path d="M138.860239,97.7920146 C132.468016,97.7920146 127.271169,102.988862 127.271169,109.381085 C127.271169,115.768244 132.468016,120.970156 138.860239,120.970156 C145.252463,120.970156 150.454375,115.768244 150.454375,109.381085 C150.454375,102.988862 145.252463,97.7920146 138.860239,97.7920146 M138.860239,125.356579 C130.051938,125.356579 122.889811,118.189387 122.889811,109.381085 C122.889811,100.572784 130.051938,93.4055919 138.860239,93.4055919 C147.668541,93.4055919 154.835733,100.572784 154.835733,109.381085 C154.835733,118.189387 147.668541,125.356579 138.860239,125.356579" id="Fill-649"></path>
                        <path d="M163.528549,110.964452 L152.648599,110.964452 C151.432963,110.964452 150.455388,109.981812 150.455388,108.771241 C150.455388,107.560669 151.432963,106.578029 152.648599,106.578029 L161.335337,106.578029 L161.335337,65.2717046 L100.62441,65.2717046 L95.9087527,76.5821918 C95.5693874,77.3976815 94.7741584,77.9345878 93.8877566,77.9345878 L68.9064207,77.9345878 L68.9064207,96.417332 C68.9064207,97.6279036 67.9288461,98.6105434 66.7182745,98.6105434 C65.5026377,98.6105434 64.5250631,97.6279036 64.5250631,96.417332 L64.5250631,75.7363113 C64.5250631,74.5257396 65.5026377,73.5430999 66.7182745,73.5430999 L92.4239273,73.5430999 L97.139585,62.2326127 C97.4789502,61.417123 98.2741793,60.8852819 99.1605811,60.8852819 L163.528549,60.8852819 C164.73912,60.8852819 165.72176,61.8679216 165.72176,63.0784933 L165.72176,108.771241 C165.72176,109.981812 164.73912,110.964452 163.528549,110.964452" id="Fill-650"></path>
                        <path d="M125.099231,110.964452 L76.1495899,110.964452 C74.9390182,110.964452 73.9563785,109.981812 73.9563785,108.771241 C73.9563785,107.560669 74.9390182,106.578029 76.1495899,106.578029 L125.099231,106.578029 C126.309803,106.578029 127.292442,107.560669 127.292442,108.771241 C127.292442,109.981812 126.309803,110.964452 125.099231,110.964452" id="Fill-651"></path>
                        <path d="M39.0265751,115.579313 L2.87657634,115.579313 C1.66600471,115.579313 0.688430133,114.596674 0.688430133,113.386102 C0.688430133,112.17553 1.66600471,111.192891 2.87657634,111.192891 L34.6452176,111.192891 L34.6452176,42.858908 C34.6452176,41.6432712 35.6227921,40.6606315 36.8333638,40.6606315 C38.0490006,40.6606315 39.0265751,41.6432712 39.0265751,42.858908 L39.0265751,115.579313 Z" id="Fill-652"></path>
                        <path d="M74.5520405,55.2280122 C73.7770721,55.2280122 73.0223642,54.8126697 72.6272823,54.0832876 C72.0447897,53.0196054 72.4398716,51.6874701 73.5035538,51.1100426 L98.1911108,37.636735 C99.2497278,37.0593075 100.586928,37.4493243 101.164356,38.5130065 C101.746848,39.5766887 101.351766,40.908824 100.288084,41.4862515 L75.6005272,54.9595591 C75.2712923,55.1419046 74.9066012,55.2280122 74.5520405,55.2280122" id="Fill-653"></path>
                        <path d="M103.3601,47.9539456 C102.605392,47.9539456 101.860814,47.5588637 101.455602,46.8497422 L94.3593223,34.4553122 C93.7565691,33.4017603 94.1212601,32.0645599 95.174812,31.4618066 C96.2131684,30.8641186 97.5604992,31.2186793 98.1683176,32.2722312 L105.264597,44.6717263 C105.862285,45.7202131 105.502659,47.0624787 104.449108,47.6652319 C104.104677,47.8577077 103.729856,47.9539456 103.3601,47.9539456" id="Fill-654"></path>
                        <path d="M66.7167549,77.9320552 C66.4786927,77.9320552 66.2355654,77.891534 65.9975032,77.8104915 C64.8578437,77.4154096 64.2500253,76.1693819 64.6451073,75.0246572 L89.8645053,1.9598215 C90.1734797,1.07848484 91.0041648,0.480796752 91.936153,0.480796752 L129.68674,0.480796752 C130.897312,0.480796752 131.874886,1.46343648 131.874886,2.67907326 L131.874886,63.0759607 C131.874886,64.2915975 130.897312,65.2691721 129.68674,65.2691721 C128.471103,65.2691721 127.493529,64.2915975 127.493529,63.0759607 L127.493529,4.87228462 L93.5012854,4.87228462 L68.7884026,76.4530304 C68.4794283,77.3596929 67.6284825,77.9320552 66.7167549,77.9320552" id="Fill-655"></path>
                        <path d="M93.88725,110.964452 C92.6766784,110.964452 91.6940387,109.981812 91.6940387,108.771241 L91.6940387,75.7363113 C91.6940387,74.5257396 92.6766784,73.5430999 93.88725,73.5430999 C95.0978217,73.5430999 96.0804614,74.5257396 96.0804614,75.7363113 L96.0804614,108.771241 C96.0804614,109.981812 95.0978217,110.964452 93.88725,110.964452" id="Fill-656"></path>
                    </g>
                </g>
            </g>
        </g>
    </g>
</svg>
