<?xml version="1.0" encoding="UTF-8" standalone="no"?>
<svg width="117px" height="142px" viewBox="0 0 117 142" version="1.1" xmlns="http://www.w3.org/2000/svg" xmlns:xlink="http://www.w3.org/1999/xlink">
    <g id="Homepage" stroke="none" stroke-width="1" fill="none" fill-rule="evenodd">
        <g id="Watson-Services-Home---Web-Copy-2" transform="translate(-232.000000, -977.000000)" fill="#ECECEC">
            <g id="Group-3" transform="translate(173.000000, 977.000000)">
                <g id="Group-129" transform="translate(59.000000, 0.000000)">
                    <path d="M115.052354,110.835071 L36.225175,110.835071 C35.1923536,110.835071 34.3539964,109.996714 34.3539964,108.963893 C34.3539964,107.931071 35.1923536,107.092714 36.225175,107.092714 L115.052354,107.092714 C116.085175,107.092714 116.923532,107.931071 116.923532,108.963893 C116.923532,109.996714 116.085175,110.835071 115.052354,110.835071" id="Fill-380"></path>
                    <path d="M71.5109357,124.127786 C71.5109357,121.850393 73.3561857,120.000821 75.6379,120.000821 C77.9152929,120.000821 79.7605429,121.850393 79.7605429,124.127786 C79.7605429,126.405179 77.9152929,128.25475 75.6379,128.25475 C73.3561857,128.25475 71.5109357,126.405179 71.5109357,124.127786" id="Fill-381"></path>
                    <path d="M36.2243107,23.3827536 C18.359525,23.3827536 3.82656071,37.9113964 3.82656071,55.7761821 C3.82656071,73.6366464 18.359525,88.1696107 36.2243107,88.1696107 C54.084775,88.1696107 68.6177393,73.6366464 68.6177393,55.7761821 C68.6177393,37.9113964 54.084775,23.3827536 36.2243107,23.3827536 M36.2243107,91.9119679 C16.2982036,91.9119679 0.088525,75.6979679 0.088525,55.7761821 C0.088525,35.850075 16.2982036,19.6403964 36.2243107,19.6403964 C56.1460964,19.6403964 72.355775,35.850075 72.355775,55.7761821 C72.355775,75.6979679 56.1460964,91.9119679 36.2243107,91.9119679" id="Fill-382"></path>
                    <path d="M36.2243107,72.2161929 C35.1914893,72.2161929 34.3531321,71.3778357 34.3531321,70.3450143 L34.3531321,41.2056214 C34.3531321,40.1684786 35.1914893,39.3344429 36.2243107,39.3344429 C37.2571321,39.3344429 38.0954893,40.1684786 38.0954893,41.2056214 L38.0954893,70.3450143 C38.0954893,71.3778357 37.2571321,72.2161929 36.2243107,72.2161929" id="Fill-383"></path>
                    <path d="M50.7922786,57.6464964 L21.6528857,57.6464964 C20.6200643,57.6464964 19.7817071,56.8081393 19.7817071,55.7753179 C19.7817071,54.7424964 20.6200643,53.9041393 21.6528857,53.9041393 L50.7922786,53.9041393 C51.8251,53.9041393 52.6634571,54.7424964 52.6634571,55.7753179 C52.6634571,56.8081393 51.8251,57.6464964 50.7922786,57.6464964" id="Fill-384"></path>
                    <path d="M107.738768,141.517646 L43.5353036,141.517646 C38.4705893,141.517646 34.3565893,137.399325 34.3565893,132.334611 L34.3565893,90.0407893 C34.3565893,89.0079679 35.190625,88.1696107 36.2234464,88.1696107 C37.2562679,88.1696107 38.094625,89.0079679 38.094625,90.0407893 L38.094625,132.334611 C38.094625,135.333682 40.5319107,137.775289 43.5353036,137.775289 L107.738768,137.775289 C110.737839,137.775289 113.179446,135.333682 113.179446,132.334611 L113.179446,9.89989643 C113.179446,6.900825 110.737839,4.45921786 107.738768,4.45921786 L43.5353036,4.45921786 C40.5319107,4.45921786 38.094625,6.900825 38.094625,9.89989643 L38.094625,21.511575 C38.094625,22.5443964 37.2562679,23.3827536 36.2234464,23.3827536 C35.190625,23.3827536 34.3565893,22.5443964 34.3565893,21.511575 L34.3565893,9.89989643 C34.3565893,4.83518214 38.4705893,0.716860714 43.5353036,0.716860714 L107.738768,0.716860714 C112.803482,0.716860714 116.917482,4.83518214 116.917482,9.89989643 L116.917482,132.334611 C116.917482,137.399325 112.803482,141.517646 107.738768,141.517646" id="Fill-385"></path>
                </g>
            </g>
        </g>
    </g>
</svg>
