<svg id="Layer_1" data-name="Layer 1" xmlns="http://www.w3.org/2000/svg" viewBox="0 0 1274.2248 574.6272"><defs><style>.cls-1{opacity:0.05;}.cls-2,.cls-3{fill:none;}.cls-2{stroke:#fff;stroke-linecap:round;stroke-linejoin:round;stroke-width:2px;}</style></defs><title>workserv_hero2remix</title><g class="cls-1"><polygon class="cls-2" points="297.337 209.741 312.567 209.741 304.952 196.552 297.337 209.741"/><polygon class="cls-2" points="25.86 209.741 41.09 209.741 33.475 196.552 25.86 209.741"/><polygon class="cls-2" points="448.2 152.499 463.43 152.499 455.815 139.31 448.2 152.499"/><polygon class="cls-2" points="631.316 152.499 646.546 152.499 638.931 139.31 631.316 152.499"/><rect class="cls-2" x="127.34" y="139.0853" width="13.6389" height="13.6389"/><rect class="cls-2" x="25.8601" y="139.0853" width="13.6389" height="13.6389"/><rect class="cls-2" x="351.6215" y="139.0853" width="13.6389" height="13.6389"/><rect class="cls-2" x="384.3381" y="139.0853" width="13.6389" height="13.6389"/><rect class="cls-2" x="1111.6627" y="139.0853" width="13.6389" height="13.6389"/><rect class="cls-2" x="966.7373" y="139.0853" width="13.6389" height="13.6389"/><rect class="cls-2" x="338.2088" y="196.3269" width="13.6389" height="13.6389"/><rect class="cls-2" x="211.2936" y="196.3269" width="13.6389" height="13.6389"/><rect class="cls-2" x="563.8942" y="196.3269" width="13.6389" height="13.6389"/><rect class="cls-2" x="258.9943" y="139.0853" width="52.1063" height="13.6389"/><rect class="cls-2" x="53.4238" y="139.0853" width="58.155" height="13.6389"/><rect class="cls-2" x="506.2516" y="196.3269" width="48.485" height="13.6389"/><rect class="cls-2" x="60.2083" y="196.3269" width="127.219" height="13.6389"/><rect class="cls-2" x="451.126" y="253.792" width="112.7682" height="13.6389"/><rect class="cls-2" x="296.8017" y="253.792" width="80.4896" height="13.6389"/><path class="cls-2" d="M8241.8395,3876.18" transform="translate(-7875.5294 -3615.569)"/><path class="cls-2" d="M8227.7534,3876.18" transform="translate(-7875.5294 -3615.569)"/><circle class="cls-2" cx="328.3413" cy="145.9047" r="6.8194"/><circle class="cls-2" cx="365.2604" cy="203.1464" r="6.8194"/><circle class="cls-2" cx="598.6027" cy="260.6114" r="6.8194"/><circle class="cls-2" cx="109.0929" cy="260.6114" r="6.8194"/><circle class="cls-2" cx="134.1594" cy="260.6114" r="6.8194"/><circle class="cls-2" cx="481.1559" cy="203.1464" r="6.8194"/><circle class="cls-2" cx="423.8742" cy="145.9047" r="6.8194"/><rect class="cls-2" x="872.3226" y="139.0853" width="52.1063" height="13.6389"/><circle class="cls-2" cx="941.6696" cy="145.9047" r="6.8194"/><circle class="cls-2" cx="1037.2025" cy="145.9047" r="6.8194"/><circle class="cls-2" cx="1088.5019" cy="145.9047" r="6.8194"/><path class="cls-2" d="M8267.6179,3818.6654c0.7327,0.2247,53.0019,0,53.0019,0" transform="translate(-7875.5294 -3615.569)"/><path class="cls-2" d="M8120.6469,3818.6654c0.4052,0.2247,29.3112,0,29.3112,0" transform="translate(-7875.5294 -3615.569)"/><path class="cls-2" d="M8048.6806,3761.4237c0.649,0.2247,46.9479,0,46.9479,0" transform="translate(-7875.5294 -3615.569)"/><path class="cls-2" d="M8363.5048,3761.4353c1.4942,0.1726,126.3551,0,126.3551,0" transform="translate(-7875.5294 -3615.569)"/><path class="cls-2" d="M8284.5925,3876.1317c0.4009,0.2191,29,0,29,0" transform="translate(-7875.5294 -3615.569)"/><path class="cls-2" d="M8057.6545,3876.1317c1.391,0.2191,100.615,0,100.615,0" transform="translate(-7875.5294 -3615.569)"/><path class="cls-2" d="M7901.39,3876.13c0.7621,0.2247,55.1274,0,55.1274,0" transform="translate(-7875.5294 -3615.569)"/><polygon class="cls-2" points="945.249 209.741 960.479 209.741 952.864 196.551 945.249 209.741"/><polygon class="cls-2" points="1233.931 209.741 1249.16 209.741 1241.545 196.551 1233.931 209.741"/><polygon class="cls-2" points="633.37 209.741 648.6 209.741 640.985 196.551 633.37 209.741"/><polygon class="cls-2" points="782.733 267.199 797.839 267.185 790.469 254.024 782.733 267.199"/><polygon class="cls-2" points="153.073 267.199 168.178 267.185 160.809 254.024 153.073 267.199"/><rect class="cls-2" x="8989.8661" y="3869.361" width="13.6389" height="13.6389" transform="translate(10117.8419 4136.7912) rotate(180)"/><rect class="cls-2" x="9057.621" y="3700.293" width="13.6389" height="13.6389" transform="translate(10253.3518 3798.6552) rotate(180)"/><rect class="cls-2" x="9110.2553" y="3700.293" width="13.6389" height="13.6389" transform="translate(10358.6203 3798.6552) rotate(180)"/><rect class="cls-2" x="8778.9973" y="3811.8959" width="13.6389" height="13.6389" transform="translate(9696.1042 4021.8611) rotate(180)"/><rect class="cls-2" x="8905.9125" y="3811.8959" width="13.6389" height="13.6389" transform="translate(9949.9346 4021.8611) rotate(180)"/><rect class="cls-2" x="8553.3118" y="3811.8959" width="13.6389" height="13.6389" transform="translate(9244.7334 4021.8611) rotate(180)"/><rect class="cls-2" x="8819.7444" y="3869.361" width="52.1063" height="13.6389" transform="translate(9816.0659 4136.7912) rotate(180)"/><rect class="cls-2" x="9038.1754" y="3869.361" width="85.7188" height="13.6389" transform="translate(10286.5404 4136.7912) rotate(180)"/><rect class="cls-2" x="8576.1083" y="3811.8959" width="48.485" height="13.6389" transform="translate(9325.1725 4021.8611) rotate(180)"/><rect class="cls-2" x="8937.2215" y="3811.8959" width="127.219" height="13.6389" transform="translate(10126.1328 4021.8611) rotate(180)"/><rect class="cls-2" x="8566.9507" y="3754.6543" width="112.7682" height="13.6389" transform="translate(9371.1404 3907.3778) rotate(180)"/><path class="cls-2" d="M8764.5348,3761.4737" transform="translate(-7875.5294 -3615.569)"/><path class="cls-2" d="M8778.621,3761.4737" transform="translate(-7875.5294 -3615.569)"/><circle class="cls-2" cx="926.9742" cy="260.6114" r="6.8194"/><circle class="cls-2" cx="890.0551" cy="203.1464" r="6.8194"/><circle class="cls-2" cx="670.3517" cy="145.9047" r="6.8194"/><circle class="cls-2" cx="774.1595" cy="203.1464" r="6.8194"/><circle class="cls-2" cx="602.717" cy="203.1464" r="6.8194"/><circle class="cls-2" cx="831.4413" cy="260.6114" r="6.8194"/><circle class="cls-2" cx="861.9346" cy="260.6114" r="6.8194"/><path class="cls-2" d="M8738.7565,3818.7653c-0.7327-.2247-53.0019,0-53.0019,0" transform="translate(-7875.5294 -3615.569)"/><path class="cls-2" d="M8885.7274,3818.7653c-0.4052-.2247-29.3112,0-29.3112,0" transform="translate(-7875.5294 -3615.569)"/><path class="cls-2" d="M8957.6938,3876.23c-0.649-.2247-46.9479,0-46.9479,0" transform="translate(-7875.5294 -3615.569)"/><path class="cls-2" d="M8624.5933,3876.2188c-1.4942-.1726-108.0789,0-108.0789,0" transform="translate(-7875.5294 -3615.569)"/><path class="cls-2" d="M8721.7818,3761.5224c-0.4009-.2191-29,0-29,0" transform="translate(-7875.5294 -3615.569)"/><path class="cls-2" d="M9048.266,3761.5224c-0.4009-.2191-29,0-29,0" transform="translate(-7875.5294 -3615.569)"/><path class="cls-2" d="M9123.8942,3761.5736c-0.7621-.2247-55.1274,0-55.1274,0" transform="translate(-7875.5294 -3615.569)"/><polygon class="cls-2" points="292.082 40.249 307.312 40.249 299.697 27.06 292.082 40.249"/><polygon class="cls-2" points="940.874 40.249 956.104 40.249 948.489 27.06 940.874 40.249"/><polygon class="cls-2" points="295.186 98.138 310.416 98.138 302.801 84.949 295.186 98.138"/><polygon class="cls-2" points="844.347 98.138 859.577 98.138 851.962 84.949 844.347 98.138"/><polygon class="cls-2" points="988.706 98.138 1003.936 98.138 996.321 84.949 988.706 98.138"/><rect class="cls-2" x="158.3877" y="84.724" width="13.6389" height="13.6389"/><rect class="cls-2" x="124.6628" y="84.724" width="13.6389" height="13.6389"/><rect class="cls-2" x="332.9536" y="26.8353" width="13.6389" height="13.6389"/><rect class="cls-2" x="262.3933" y="84.724" width="13.6389" height="13.6389"/><rect class="cls-2" x="810.433" y="84.724" width="13.6389" height="13.6389"/><rect class="cls-2" x="1075.3449" y="84.724" width="13.6389" height="13.6389"/><rect class="cls-2" x="206.0384" y="26.8353" width="13.6389" height="13.6389"/><rect class="cls-2" x="565.1687" y="26.8353" width="13.6389" height="13.6389"/><rect class="cls-2" x="1049.4636" y="26.8353" width="13.6389" height="13.6389"/><rect class="cls-2" x="500.9964" y="26.8353" width="48.485" height="13.6389"/><rect class="cls-2" x="25.8601" y="26.8353" width="127.219" height="13.6389"/><rect class="cls-2" x="1121.1457" y="26.8353" width="127.219" height="13.6389"/><rect class="cls-2" x="619.3071" y="26.8353" width="147.7676" height="13.6389"/><rect class="cls-2" x="794.8702" y="26.8353" width="36.8822" height="13.6389"/><rect class="cls-2" x="468.8792" y="84.724" width="112.7682" height="13.6389"/><rect class="cls-2" x="747.8054" y="84.724" width="50.0332" height="13.6389"/><path class="cls-2" d="M8259.5927,3707.1124" transform="translate(-7875.5294 -3615.569)"/><path class="cls-2" d="M8245.5066,3707.1124" transform="translate(-7875.5294 -3615.569)"/><rect class="cls-2" x="332.9817" y="84.724" width="80.8252" height="13.6389"/><circle class="cls-2" cx="360.0052" cy="33.6548" r="6.8194"/><circle class="cls-2" cx="237.8939" cy="91.5434" r="6.8194"/><circle class="cls-2" cx="1114.3367" cy="91.5434" r="6.8194"/><circle class="cls-2" cx="616.3559" cy="91.5434" r="6.8194"/><circle class="cls-2" cx="1030.383" cy="91.5434" r="6.8194"/><circle class="cls-2" cx="475.9008" cy="33.6548" r="6.8194"/><circle class="cls-2" cx="1081.6825" cy="33.6548" r="6.8194"/><circle class="cls-2" cx="853.758" cy="33.6548" r="6.8194"/><path class="cls-2" d="M8262.3627,3649.1738c0.7327,0.2247,53.0019,0,53.0019,0" transform="translate(-7875.5294 -3615.569)"/><path class="cls-2" d="M8115.3917,3649.1738c0.4052,0.2247,29.3112,0,29.3112,0" transform="translate(-7875.5294 -3615.569)"/><path class="cls-2" d="M8302.3457,3707.0637c0.4009,0.2191,29,0,29,0" transform="translate(-7875.5294 -3615.569)"/><path class="cls-2" d="M8517.7422,3707.0637c1.1813,0.2191,85.4506,0,85.4506,0" transform="translate(-7875.5294 -3615.569)"/><path class="cls-2" d="M8759.7783,3707.0637c1.1813,0.2191,85.4506,0,85.4506,0" transform="translate(-7875.5294 -3615.569)"/><path class="cls-2" d="M8845.9628,3649.175c0.8429,0.2191,60.9726,0,60.9726,0" transform="translate(-7875.5294 -3615.569)"/><path class="cls-2" d="M8755.33,3649.175c0.6269,0.2191,45.3489,0,45.3489,0" transform="translate(-7875.5294 -3615.569)"/><path class="cls-2" d="M7901.39,3707.0625c0.7621,0.2247,55.1274,0,55.1274,0" transform="translate(-7875.5294 -3615.569)"/><polygon class="cls-2" points="976.888 490.102 961.658 490.102 969.273 476.912 976.888 490.102"/><polygon class="cls-2" points="1248.365 490.102 1233.135 490.102 1240.75 476.912 1248.365 490.102"/><polygon class="cls-2" points="826.025 432.86 810.795 432.86 818.41 419.671 826.025 432.86"/><polygon class="cls-2" points="642.908 432.86 627.679 432.86 635.293 419.671 642.908 432.86"/><rect class="cls-2" x="9008.7754" y="4035.015" width="13.6389" height="13.6389" transform="translate(10155.6603 4468.0999) rotate(-180)"/><rect class="cls-2" x="8784.4939" y="4035.015" width="13.6389" height="13.6389" transform="translate(9707.0972 4468.0999) rotate(-180)"/><rect class="cls-2" x="8751.7773" y="4035.015" width="13.6389" height="13.6389" transform="translate(9641.664 4468.0999) rotate(-180)"/><rect class="cls-2" x="8024.4527" y="4035.015" width="13.6389" height="13.6389" transform="translate(8187.0148 4468.0999) rotate(-180)"/><rect class="cls-2" x="8169.3781" y="4035.015" width="13.6389" height="13.6389" transform="translate(8476.8657 4468.0999) rotate(-180)"/><rect class="cls-2" x="8797.9066" y="4092.2566" width="13.6389" height="13.6389" transform="translate(9733.9226 4582.5832) rotate(-180)"/><rect class="cls-2" x="8924.8218" y="4092.2566" width="13.6389" height="13.6389" transform="translate(9987.753 4582.5832) rotate(-180)"/><rect class="cls-2" x="8572.2212" y="4092.2566" width="13.6389" height="13.6389" transform="translate(9282.5518 4582.5832) rotate(-180)"/><rect class="cls-2" x="8838.6537" y="4035.015" width="52.1063" height="13.6389" transform="translate(9853.8843 4468.0999) rotate(-180)"/><rect class="cls-2" x="9038.1754" y="4035.015" width="85.7188" height="13.6389" transform="translate(10286.5401 4468.0999) rotate(-180)"/><rect class="cls-2" x="8595.0177" y="4092.2566" width="48.485" height="13.6389" transform="translate(9362.9909 4582.5832) rotate(-180)"/><rect class="cls-2" x="8962.327" y="4092.2566" width="127.219" height="13.6389" transform="translate(10176.3435 4582.5832) rotate(-180)"/><rect class="cls-2" x="8585.86" y="4149.7217" width="112.7682" height="13.6389" transform="translate(9408.9588 4697.5133) rotate(-180)"/><rect class="cls-2" x="8772.463" y="4149.7217" width="80.4896" height="13.6389" transform="translate(9749.8862 4697.5133) rotate(-180)"/><path class="cls-2" d="M8783.4442,4156.5411" transform="translate(-7875.5294 -3615.569)"/><path class="cls-2" d="M8797.53,4156.5411" transform="translate(-7875.5294 -3615.569)"/><circle class="cls-2" cx="945.8836" cy="426.2655" r="6.8194"/><circle class="cls-2" cx="908.9645" cy="483.5071" r="6.8194"/><circle class="cls-2" cx="675.6222" cy="540.9722" r="6.8194"/><circle class="cls-2" cx="1165.1319" cy="540.9722" r="6.8194"/><circle class="cls-2" cx="1140.0654" cy="540.9722" r="6.8194"/><circle class="cls-2" cx="793.0689" cy="483.5071" r="6.8194"/><circle class="cls-2" cx="850.3507" cy="426.2655" r="6.8194"/><rect class="cls-2" x="8225.3254" y="4035.015" width="52.1063" height="13.6389" transform="translate(8627.2277 4468.0999) rotate(-180)"/><circle class="cls-2" cx="332.5553" cy="426.2655" r="6.8194"/><circle class="cls-2" cx="237.0224" cy="426.2655" r="6.8194"/><circle class="cls-2" cx="185.7229" cy="426.2655" r="6.8194"/><path class="cls-2" d="M8757.6658,4099.0261c-0.7327.2247-53.0019,0-53.0019,0" transform="translate(-7875.5294 -3615.569)"/><path class="cls-2" d="M8904.6368,4099.0261c-0.4052.2247-29.3112,0-29.3112,0" transform="translate(-7875.5294 -3615.569)"/><path class="cls-2" d="M8976.6031,4041.7845c-0.649.2247-46.9479,0-46.9479,0" transform="translate(-7875.5294 -3615.569)"/><path class="cls-2" d="M8661.7789,4041.7961c-1.4942.1726-126.3551,0-126.3551,0" transform="translate(-7875.5294 -3615.569)"/><path class="cls-2" d="M8740.6912,4156.4924c-0.4009.2191-29,0-29,0" transform="translate(-7875.5294 -3615.569)"/><path class="cls-2" d="M8967.6292,4156.4924c-1.391.2191-100.615,0-100.615,0" transform="translate(-7875.5294 -3615.569)"/><path class="cls-2" d="M9123.8942,4156.4912c-0.7621.2247-55.1274,0-55.1274,0" transform="translate(-7875.5294 -3615.569)"/><polygon class="cls-2" points="328.975 490.102 313.746 490.102 321.36 476.912 328.975 490.102"/><polygon class="cls-2" points="640.855 490.102 625.625 490.102 633.24 476.912 640.855 490.102"/><polygon class="cls-2" points="491.491 547.56 476.386 547.546 483.756 534.384 491.491 547.56"/><polygon class="cls-2" points="1121.152 547.56 1106.047 547.546 1113.416 534.384 1121.152 547.56"/><rect class="cls-2" x="146.2493" y="534.1527" width="13.6389" height="13.6389"/><rect class="cls-2" x="78.4944" y="365.0847" width="13.6389" height="13.6389"/><rect class="cls-2" x="25.8601" y="365.0847" width="13.6389" height="13.6389"/><rect class="cls-2" x="357.1181" y="476.6877" width="13.6389" height="13.6389"/><rect class="cls-2" x="230.2029" y="476.6877" width="13.6389" height="13.6389"/><rect class="cls-2" x="582.8036" y="476.6877" width="13.6389" height="13.6389"/><rect class="cls-2" x="277.9036" y="534.1527" width="52.1063" height="13.6389"/><rect class="cls-2" x="78.4944" y="534.153" width="33.0845" height="13.6389"/><rect class="cls-2" x="525.161" y="476.6877" width="48.485" height="13.6389"/><rect class="cls-2" x="25.8601" y="476.6877" width="127.219" height="13.6389"/><rect class="cls-2" x="470.0354" y="419.446" width="112.7682" height="13.6389"/><path class="cls-2" d="M8260.7488,4041.8344" transform="translate(-7875.5294 -3615.569)"/><path class="cls-2" d="M8246.6627,4041.8344" transform="translate(-7875.5294 -3615.569)"/><circle class="cls-2" cx="347.2506" cy="540.9722" r="6.8194"/><circle class="cls-2" cx="32.6795" cy="540.9722" r="6.8194"/><circle class="cls-2" cx="384.1697" cy="483.5071" r="6.8194"/><circle class="cls-2" cx="603.8731" cy="426.2655" r="6.8194"/><circle class="cls-2" cx="500.0653" cy="483.5071" r="6.8194"/><circle class="cls-2" cx="671.5078" cy="483.5071" r="6.8194"/><circle class="cls-2" cx="442.7835" cy="540.9722" r="6.8194"/><circle class="cls-2" cx="412.2902" cy="540.9722" r="6.8194"/><path class="cls-2" d="M8286.5272,4099.126c0.7327-.2247,53.0019,0,53.0019,0" transform="translate(-7875.5294 -3615.569)"/><path class="cls-2" d="M8139.5562,4099.126c0.4052-.2247,29.3112,0,29.3112,0" transform="translate(-7875.5294 -3615.569)"/><path class="cls-2" d="M8067.59,4156.5911c0.649-.2247,46.9479,0,46.9479,0" transform="translate(-7875.5294 -3615.569)"/><path class="cls-2" d="M8400.69,4156.5795c1.4942-.1726,108.0789,0,108.0789,0" transform="translate(-7875.5294 -3615.569)"/><path class="cls-2" d="M8303.5019,4041.8831c0.4009-.2191,29,0,29,0" transform="translate(-7875.5294 -3615.569)"/><path class="cls-2" d="M7977.0176,4041.8831c0.4009-.2191,29,0,29,0" transform="translate(-7875.5294 -3615.569)"/><path class="cls-2" d="M7901.39,4041.9343c0.7621-.2247,55.1274,0,55.1274,0" transform="translate(-7875.5294 -3615.569)"/><polygon class="cls-2" points="982.143 320.61 966.913 320.61 974.528 307.421 982.143 320.61"/><polygon class="cls-2" points="333.351 320.61 318.121 320.61 325.736 307.421 333.351 320.61"/><polygon class="cls-2" points="979.039 378.499 963.809 378.499 971.424 365.309 979.039 378.499"/><polygon class="cls-2" points="429.878 378.499 414.648 378.499 422.263 365.309 429.878 378.499"/><polygon class="cls-2" points="285.519 378.499 270.289 378.499 277.904 365.309 285.519 378.499"/><rect class="cls-2" x="8977.7277" y="3980.6537" width="13.6389" height="13.6389" transform="translate(10093.5649 4359.3773) rotate(-180)"/><rect class="cls-2" x="9011.4526" y="3980.6537" width="13.6389" height="13.6389" transform="translate(10161.0147 4359.3773) rotate(-180)"/><rect class="cls-2" x="8803.1618" y="3922.765" width="13.6389" height="13.6389" transform="translate(9744.433 4243.6) rotate(-180)"/><rect class="cls-2" x="8873.7221" y="3980.6537" width="13.6389" height="13.6389" transform="translate(9885.5535 4359.3773) rotate(-180)"/><rect class="cls-2" x="8325.6824" y="3980.6537" width="13.6389" height="13.6389" transform="translate(8789.4743 4359.3773) rotate(-180)"/><rect class="cls-2" x="8060.7705" y="3980.6537" width="13.6389" height="13.6389" transform="translate(8259.6504 4359.3773) rotate(-180)"/><rect class="cls-2" x="8930.077" y="3922.765" width="13.6389" height="13.6389" transform="translate(9998.2634 4243.6) rotate(-180)"/><rect class="cls-2" x="8570.9467" y="3922.765" width="13.6389" height="13.6389" transform="translate(9280.0028 4243.6) rotate(-180)"/><rect class="cls-2" x="8086.6518" y="3922.765" width="13.6389" height="13.6389" transform="translate(8311.4131 4243.6) rotate(-180)"/><rect class="cls-2" x="8600.2729" y="3922.765" width="48.485" height="13.6389" transform="translate(9373.5013 4243.6) rotate(-180)"/><rect class="cls-2" x="8964.0314" y="3922.765" width="100.4091" height="13.6389" transform="translate(10152.9424 4243.6) rotate(-180)"/><rect class="cls-2" x="7901.3895" y="3922.765" width="127.219" height="13.6389" transform="translate(8054.4686 4243.6) rotate(-180)"/><rect class="cls-2" x="8382.6796" y="3922.765" width="147.7676" height="13.6389" transform="translate(9037.5973 4243.6) rotate(-180)"/><rect class="cls-2" x="8318.0019" y="3922.765" width="36.8822" height="13.6389" transform="translate(8797.3565 4243.6) rotate(-180)"/><rect class="cls-2" x="8568.1068" y="3980.6537" width="112.7682" height="13.6389" transform="translate(9373.4524 4359.3773) rotate(-180)"/><rect class="cls-2" x="8351.9157" y="3980.6537" width="50.0332" height="13.6389" transform="translate(8878.3352 4359.3773) rotate(-180)"/><path class="cls-2" d="M8765.691,3987.4731" transform="translate(-7875.5294 -3615.569)"/><path class="cls-2" d="M8779.7771,3987.4731" transform="translate(-7875.5294 -3615.569)"/><rect class="cls-2" x="860.4179" y="365.0847" width="80.8252" height="13.6389"/><circle class="cls-2" cx="914.2196" cy="314.0155" r="6.8194"/><circle class="cls-2" cx="1241.5453" cy="314.0155" r="6.8194"/><circle class="cls-2" cx="1036.331" cy="371.9042" r="6.8194"/><circle class="cls-2" cx="159.8882" cy="371.9042" r="6.8194"/><circle class="cls-2" cx="657.869" cy="371.9042" r="6.8194"/><circle class="cls-2" cx="243.8418" cy="371.9042" r="6.8194"/><circle class="cls-2" cx="798.3241" cy="314.0155" r="6.8194"/><circle class="cls-2" cx="192.5423" cy="314.0155" r="6.8194"/><circle class="cls-2" cx="420.4668" cy="314.0155" r="6.8194"/><path class="cls-2" d="M8762.921,3929.5345c-0.7327.2247-53.0019,0-53.0019,0" transform="translate(-7875.5294 -3615.569)"/><path class="cls-2" d="M8909.892,3929.5345c-0.4052.2247-29.3112,0-29.3112,0" transform="translate(-7875.5294 -3615.569)"/><path class="cls-2" d="M8722.938,3987.4245c-0.4009.2191-29,0-29,0" transform="translate(-7875.5294 -3615.569)"/><path class="cls-2" d="M8507.5414,3987.4245c-1.1813.2191-85.4506,0-85.4506,0" transform="translate(-7875.5294 -3615.569)"/><path class="cls-2" d="M8265.5053,3987.4245c-1.1813.2191-85.4506,0-85.4506,0" transform="translate(-7875.5294 -3615.569)"/><path class="cls-2" d="M8179.3209,3929.5358c-0.8429.2191-60.9726,0-60.9726,0" transform="translate(-7875.5294 -3615.569)"/><path class="cls-2" d="M8269.9533,3929.5358c-0.6269.2191-45.3489,0-45.3489,0" transform="translate(-7875.5294 -3615.569)"/><path class="cls-2" d="M9123.8942,3987.4232c-0.7621.2247-55.1274,0-55.1274,0" transform="translate(-7875.5294 -3615.569)"/></g><rect class="cls-3" width="1274.2248" height="574.6272"/></svg>